<svg xmlns="http://www.w3.org/2000/svg" xmlns:xlink="http://www.w3.org/1999/xlink" viewBox="0 0 1576.07 425.77"><defs><style>.cls-1{fill:none;}.cls-2{fill:#2e3a41;}.cls-3,.cls-7{fill:#006db6;}.cls-4,.cls-8{fill:#fff;}.cls-5,.cls-9{fill:#d1232a;}.cls-6{clip-path:url(#clip-path);}.cls-7,.cls-8,.cls-9{fill-rule:evenodd;}</style><clipPath id="clip-path"><path class="cls-1" d="M1400.09,81.58l37.63-28.72c9.48-7.19,12.93-12.07,12.93-18.1,0-6.32-4.45-10.2-11.2-10.2s-12.07,3.88-20,12.93l-18.81-15.66C1411.44,7.9,1422.07.29,1441.6.29c22,0,37.06,13.07,37.06,32.31,0,16.09-8.19,24.57-23.27,35.19l-17.24,12.07h41.51v22.69h-79.57Zm87.47,5.17,17.52-17.52c7.19,7.33,14.8,11.49,24,11.49,7.9,0,12.93-4,12.93-10.48s-5.89-10.35-16.38-10.35h-11.77l-4-14.5L1533,24.56h-38.49V2h72.67V22l-24,20.54c14.36,3.15,26,11.2,26,28.58,0,20.39-16.37,33.46-38.78,33.46C1511,104.56,1497.33,97.53,1487.56,86.75Z"/></clipPath></defs><g id="Layer_2" data-name="Layer 2"><g id="Layer_1-2" data-name="Layer 1"><path class="cls-2" d="M37.64,234.31H61.26L98.9,323.36H72.63l-6.44-15.78H32.08l-6.31,15.78H0ZM59.11,288.5l-9.85-25.13-10,25.13Z"/><path class="cls-2" d="M107.49,234.94h45.35c11.11,0,18.95,2.78,24.12,8,3.54,3.54,5.69,8.21,5.69,14.53,0,10.23-5.81,16.29-13.64,19.7,10.73,3.54,17.55,9.6,17.55,21.86,0,15.15-12.37,24.37-33.47,24.37h-45.6Zm39.29,35.25c7.45,0,11.62-2.53,11.62-8,0-4.8-3.79-7.58-11.12-7.58H131.37v15.54Zm3.53,33.47c7.45,0,11.75-2.91,11.75-8.34,0-4.8-3.79-8-12-8H131.37v16.3Z"/><polygon class="cls-2" points="216.88 256.42 190.35 256.42 190.35 234.94 267.91 234.94 267.91 256.42 241.38 256.42 241.38 323.36 216.88 323.36 216.88 256.42"/><path class="cls-2" d="M271.83,279.16c0-25.39,20.46-46,47.74-46s47.5,20.33,47.5,46c0,25.38-20.46,46-47.75,46s-47.49-20.33-47.49-46m70.23,0c0-12.76-9.22-23.88-22.74-23.88S297,266.14,297,279.16c0,12.75,9.22,23.87,22.61,23.87s22.49-10.86,22.49-23.87"/><polygon class="cls-2" points="379.82 234.94 405.72 234.94 426.81 269.18 447.91 234.94 473.8 234.94 473.8 323.36 449.42 323.36 449.42 272.59 426.81 307.2 426.31 307.2 403.82 272.84 403.82 323.36 379.82 323.36 379.82 234.94"/><path class="cls-2" d="M486.43,279.16c0-25.39,20.47-46,47.75-46s47.49,20.33,47.49,46c0,25.38-20.46,46-47.74,46s-47.5-20.33-47.5-46m70.24,0c0-12.76-9.22-23.88-22.74-23.88s-22.36,10.86-22.36,23.88c0,12.75,9.22,23.87,22.61,23.87s22.49-10.86,22.49-23.87"/><path class="cls-2" d="M594.43,234.94h71.12v20.85H618.94V266h17c20.46,0,35.49,9.35,35.49,28.42,0,18.31-13.39,28.92-34.23,28.92H594.43Zm40.93,67.84c7.32,0,11.62-3.29,11.62-9.35,0-5.43-4.3-9-11.5-9H618.94v18.32Z"/><polygon class="cls-2" points="682.85 234.94 707.1 234.94 707.1 284.71 741.34 234.94 764.2 234.94 764.2 323.36 739.95 323.36 739.95 273.6 705.71 323.36 682.85 323.36 682.85 234.94"/><path class="cls-2" d="M770.26,322.61l1.64-18.82a43.72,43.72,0,0,0,5.69.5c6.94,0,13.51-3.53,13.51-57.09V234.94h68v88.42H834.55V256.42H814v3.41c0,53.93-11.87,64.8-29.05,64.8a55.92,55.92,0,0,1-14.65-2"/><path class="cls-2" d="M874.72,234.94h24.51v27.79h13.39c21.22,0,36.75,10.11,36.75,30.07,0,19.07-13.89,30.56-35.49,30.56H874.72ZM912,302.78c8.09,0,12.89-3.67,12.89-10.61,0-6.19-4.8-10.24-12.76-10.24H899.23v20.85Z"/><polygon class="cls-2" points="994.72 234.94 1058.38 234.94 1058.38 256.42 1019.22 256.42 1019.22 323.36 994.72 323.36 994.72 234.94"/><path class="cls-2" d="M1060.65,279.16c0-25.39,20.47-46,47.75-46s47.49,20.33,47.49,46c0,25.38-20.46,46-47.74,46s-47.5-20.33-47.5-46m70.24,0c0-12.76-9.23-23.88-22.74-23.88s-22.36,10.86-22.36,23.88c0,12.75,9.22,23.87,22.61,23.87s22.49-10.86,22.49-23.87"/><path class="cls-2" d="M1159.56,301.89h7.83c5.94-16,9-31.45,9-64.67V235h67.32v66.94h10l-2.78,39.16h-20.71V323.36h-47l-1.64,17.69h-22Zm59.62,0V256.42H1200v.88c0,19.58-2.91,32.47-7,44.59Z"/><path class="cls-2" d="M1294,234.31h23.62l37.65,89.05h-26.28l-6.44-15.78h-34.1l-6.32,15.78h-25.77Zm21.48,54.19-9.85-25.13-10,25.13Z"/><path class="cls-3" d="M820.42,85.14C566.88,85.14,505.59,192,248.32,192c-100.74,0-167.09,18-207.66,35.23l-1.59,3.75c40.11-14.8,105.05-30.38,200.75-30.38C517.36,200.55,571.43,106,825,106c238.73,0,368.11,70.74,510,56.75h0l.73-.1h0l.77-.11h0l.7-.11h0l.73-.11h0l.78-.12h0l.7-.11h0l.74-.11.77-.12h0l.76-.11.77-.13c.25,0,.51-.07.76-.12h0l.77-.12c-141.6,10.17-279.23-76.23-523.74-76.23"/><path class="cls-4" d="M815.87,64.28c-253.55,0-322,119.06-559,119.06-105.53,0-173.37,20.16-214.47,39.84l-1.69,4C81.23,209.9,147.58,192,248.32,192c257.27,0,318.56-106.81,572.1-106.81,244.51,0,382.14,86.4,523.74,76.23l.77-.13h0l.78-.13h0l.75-.13h0l.79-.13h0l.78-.13h0l.8-.14.79-.13h0l.78-.13h0l.78-.14h0l.79-.14h0l.78-.14h0l.77-.14c-141.82,5.83-287.48-95.46-537.73-95.46"/><path class="cls-5" d="M825,106c-253.55,0-307.62,94.54-585.16,94.54-95.7,0-160.64,15.58-200.75,30.38l-1.5,3.54c39.7-12.25,103.25-25.32,193.75-25.32,297.81,0,344.67-82.28,598.21-82.28,233,0,353.92,54.29,496.69,37l.38,0,1-.13h.1l.45-.06h0l.81-.1h0l.69-.09h0l.71-.09h0l.76-.1h0l.76-.09h0l.66-.09h.06l.72-.1h0l.71-.1h0l.68-.1c-141.86,14-271.24-56.75-510-56.75"/><path class="cls-2" d="M815.11,60.8c-253.55,0-323.25,121.11-556.88,121.11-106.31,0-174.4,20.51-215.59,40.59l-.29.68c41.1-19.68,108.94-39.84,214.47-39.84,237,0,305.5-119.06,559.05-119.06,250.25,0,395.91,101.29,537.73,95.46h0l.79-.14h0l.79-.15c-141.9,5.07-288.89-98.64-540.11-98.64"/><path class="cls-2" d="M1207.05,81.58l37.63-28.72c9.48-7.19,12.93-12.07,12.93-18.1,0-6.32-4.46-10.2-11.21-10.2s-12.06,3.88-20,12.93l-18.82-15.66C1218.4,7.9,1229,.29,1248.56.29c22,0,37.06,13.07,37.06,32.31,0,16.09-8.19,24.57-23.27,35.19l-17.24,12.07h41.51v22.69h-79.57Z"/><path class="cls-2" d="M1297.82,52.28c0-28.44,18.1-52.28,46.68-52.28s46.4,23.56,46.4,52.28c0,28.44-18,52.28-46.68,52.28S1297.82,81,1297.82,52.28Zm65.07,0c0-15.94-7.61-27.58-18.67-27.58s-18.39,11.21-18.39,27.58c0,16.09,7.47,27.58,18.67,27.58S1362.89,68.51,1362.89,52.28Z"/><path class="cls-2" d="M1400.09,81.58l37.63-28.72c9.48-7.19,12.93-12.07,12.93-18.1,0-6.32-4.45-10.2-11.2-10.2s-12.07,3.88-20,12.93l-18.81-15.66C1411.44,7.9,1422.07.29,1441.6.29c22,0,37.06,13.07,37.06,32.31,0,16.09-8.19,24.57-23.27,35.19l-17.24,12.07h41.51v22.69h-79.57Z"/><path class="cls-2" d="M1487.56,86.75l17.52-17.52c7.19,7.33,14.8,11.49,24,11.49,7.9,0,12.93-4,12.93-10.48s-5.89-10.35-16.38-10.35h-11.77l-4-14.5L1533,24.56h-38.49V2h72.67V22l-24,20.54c14.36,3.15,26,11.2,26,28.58,0,20.39-16.37,33.46-38.78,33.46C1511,104.56,1497.33,97.53,1487.56,86.75Z"/><g class="cls-6"><path class="cls-7" d="M1570.59,82.45c-18.77-.4-47,.66-64.63,2-34.94,2.66-62.52,10.23-93.51,19.84-32.47,10.49-66.23,12.66-97.65,13.35,31.65-.1,70.76-.25,98.58-6.19,31.59-8,57.35-12.31,92.67-14.14,17.38-.89,52.63-.43,70,.16Z"/><path class="cls-8" d="M1570.2,76.8c-19.2-.47-46.25.63-64.24,2C1471,81.46,1443.44,89,1412.45,98.64c-28.28,8.78-65.67,17.45-97.09,18.14,31.64-.1,69.18-3.67,98-11,31.59-8,57.35-17.27,92.67-19.1,17.78-.91,48-1.82,67.15-.91Z"/><path class="cls-9" d="M1571.65,96.15c-19.58-.9-50.72-.62-67.69.38-35.24,2.08-63.4,7.15-94.75,14.65-28.62,6.86-66.72,6.89-98.38,7.43,31.88-.08,67,1,97.75-3.74,46.61-7.18,113.41-11.53,162.73-10Z"/></g><polygon class="cls-3" points="112.76 411.14 112.76 417.21 83.57 417.21 83.57 378.28 111.98 378.28 111.98 384.34 90.8 384.34 90.8 394.46 109.59 394.46 109.59 400.41 90.8 400.41 90.8 411.14 112.76 411.14"/><polygon class="cls-3" points="154.41 400.8 147.74 400.8 147.74 417.2 140.68 417.2 140.68 400.8 134.01 400.8 124.17 417.2 115.83 417.2 128.06 396.91 116.66 378.28 124.33 378.28 133.84 394.57 140.68 394.57 140.68 378.28 147.74 378.28 147.74 394.57 154.47 394.57 164.03 378.28 171.71 378.28 160.36 396.96 172.54 417.2 164.2 417.2 154.41 400.8"/><polygon class="cls-3" points="206.8 411.14 206.8 417.21 177.6 417.21 177.6 378.28 206.02 378.28 206.02 384.34 184.83 384.34 184.83 394.46 203.63 394.46 203.63 400.41 184.83 400.41 184.83 411.14 206.8 411.14"/><polygon class="cls-3" points="241.27 384.4 221.98 384.4 222.03 417.21 214.92 417.21 214.92 378.28 241.33 378.28 241.27 384.4"/><path class="cls-3" d="M240,397.74c0-11.51,8.89-20,21-20s21,8.45,21,20-8.89,20-21,20-21-8.51-21-20m34.64,0A13.68,13.68,0,1,0,261,411.42a13.26,13.26,0,0,0,13.68-13.68"/><path class="cls-3" d="M327.41,411.09v14.4h-6.67v-8.28H290.88v8.28h-6.73l.06-14.4h1.66c5.29-.22,6.57-9.06,7-20.46l.44-12.35h28.52v32.81Zm-32.47,0h19.74V384.4H299.44l-.28,6.89c-.33,8.84-1.22,16.68-4.22,19.8"/><polygon class="cls-3" points="368.78 378.28 368.78 417.21 361.55 417.21 361.55 400.52 341.43 400.52 341.43 417.21 334.2 417.21 334.2 378.28 341.43 378.28 341.43 394.35 361.55 394.35 361.55 378.28 368.78 378.28"/><path class="cls-3" d="M405.48,408.2H386l-3.83,9h-7.45l17.51-38.92h7.12l17.57,38.92h-7.56Zm-2.39-5.67-7.34-17-7.28,17Z"/><path class="cls-3" d="M450.69,378.28V417.2h-7.11V406.36h-10.4L426,417.2h-7.62l8.34-12c-5.39-2-8.45-6.4-8.45-12.63,0-9,6.4-14.29,16.29-14.29Zm-25.13,14.18c0,5.12,3.06,8,8.9,8h9.12V384.4h-8.84c-5.9,0-9.18,2.72-9.18,8.06"/><polygon class="cls-3" points="511.58 378.28 511.58 417.21 504.35 417.21 504.35 400.52 484.23 400.52 484.23 417.21 477 417.21 477 378.28 484.23 378.28 484.23 394.35 504.35 394.35 504.35 378.28 511.58 378.28"/><path class="cls-3" d="M548.28,408.2H528.82l-3.83,9h-7.45l17.51-38.92h7.12l17.57,38.92h-7.56Zm-2.39-5.67-7.34-17-7.28,17Z"/><polygon class="cls-3" points="605.45 411.09 605.45 425.77 598.78 425.77 598.78 417.21 565.75 417.21 565.75 378.28 572.86 378.28 572.86 411.09 592.49 411.09 592.49 378.28 599.66 378.28 599.66 411.09 605.45 411.09"/><polygon class="cls-3" points="612.12 378.28 619.24 378.28 619.24 405.92 640.15 378.28 646.88 378.28 646.88 417.21 639.76 417.21 639.76 389.63 618.85 417.21 612.12 417.21 612.12 378.28"/><path class="cls-3" d="M654.83,397.74c0-11.51,8.9-20,21-20s21,8.45,21,20-8.9,20-21,20-21-8.51-21-20m34.64,0a13.68,13.68,0,1,0-13.68,13.68,13.26,13.26,0,0,0,13.68-13.68"/><polygon class="cls-3" points="739.35 378.28 739.35 417.21 732.12 417.21 732.12 400.52 712 400.52 712 417.21 704.77 417.21 704.77 378.28 712 378.28 712 394.35 732.12 394.35 732.12 378.28 739.35 378.28"/><path class="cls-3" d="M776.05,408.2H756.59l-3.83,9H745.3l17.52-38.92h7.12l17.57,38.92H780Zm-2.39-5.67-7.34-17-7.28,17Z"/><path class="cls-3" d="M827,378.28v38.93h-7.12V384.4H804.53l-.34,9.73c-.5,15.35-2.78,23.63-11.18,23.63a18.3,18.3,0,0,1-3.94-.55l.5-6.29a5.35,5.35,0,0,0,1.67.22c4.72,0,6.17-5.78,6.56-16.73l.55-16.13Z"/><path class="cls-3" d="M870.42,403.92c0,8.72-5.84,13.29-15.68,13.29H838V378.28h7.12v13.18H855.9c9.29,0,14.52,4.17,14.52,12.46m-7.23.11c0-4.9-3.17-7.06-8.78-7.06h-9.29v14.67h9.29c5.55,0,8.78-2.61,8.78-7.61"/><polygon class="cls-3" points="912.4 378.28 912.4 417.21 905.17 417.21 905.17 400.52 885.04 400.52 885.04 417.21 877.82 417.21 877.82 378.28 885.04 378.28 885.04 394.35 905.17 394.35 905.17 378.28 912.4 378.28"/><path class="cls-3" d="M949.1,408.2H929.64l-3.83,9h-7.45l17.51-38.92H943l17.57,38.92H953Zm-2.39-5.67-7.34-17-7.28,17Z"/><path class="cls-3" d="M994.31,378.28V417.2H987.2V406.36H976.8l-7.23,10.84H962l8.34-12c-5.39-2-8.45-6.4-8.45-12.63,0-9,6.4-14.29,16.29-14.29Zm-25.13,14.18c0,5.12,3.06,8,8.9,8h9.12V384.4h-8.84c-5.9,0-9.18,2.72-9.18,8.06"/><polygon class="cls-3" points="1055.09 378.28 1055.09 417.21 1047.97 417.21 1047.97 384.4 1027.79 384.4 1027.79 417.21 1020.67 417.21 1020.67 378.28 1055.09 378.28"/><path class="cls-3" d="M1098.63,392.13c0,8.56-6.34,13.84-16.57,13.84h-8.78v11.24h-7.23V378.28h16c10.23,0,16.57,5.23,16.57,13.85m-7.28,0c0-4.9-3.28-7.73-9.62-7.73h-8.45v15.46h8.45c6.34,0,9.62-2.84,9.62-7.73"/><polygon class="cls-3" points="1134.67 411.14 1134.67 417.21 1105.47 417.21 1105.47 378.28 1133.89 378.28 1133.89 384.34 1112.7 384.34 1112.7 394.46 1131.5 394.46 1131.5 400.41 1112.7 400.41 1112.7 411.14 1134.67 411.14"/><polygon class="cls-3" points="1178.48 417.2 1178.43 391.4 1165.64 412.76 1162.42 412.76 1149.63 391.74 1149.63 417.2 1142.79 417.2 1142.79 378.28 1148.74 378.28 1164.14 404.03 1179.38 378.28 1185.27 378.28 1185.38 417.2 1178.48 417.2"/><polygon class="cls-3" points="1196.34 378.28 1203.45 378.28 1203.45 405.92 1224.36 378.28 1231.09 378.28 1231.09 417.21 1223.97 417.21 1223.97 389.63 1203.07 417.21 1196.34 417.21 1196.34 378.28"/><path class="cls-3" d="M1271.74,378.28V417.2h-7.12V406.36h-10.4L1247,417.2h-7.62l8.34-12c-5.4-2-8.45-6.4-8.45-12.63,0-9,6.39-14.29,16.29-14.29Zm-25.13,14.18c0,5.12,3.06,8,8.89,8h9.12V384.4h-8.84c-5.89,0-9.17,2.72-9.17,8.06"/></g></g></svg>